<svg width="17" height="17" viewBox="0 0 17 17" fill="none" xmlns="http://www.w3.org/2000/svg">
<path d="M15.25 0.375C15.8477 0.375 16.375 0.902344 16.375 1.53516V15C16.375 15.6328 15.8477 16.125 15.25 16.125H1.71484C1.11719 16.125 0.625 15.6328 0.625 15V1.53516C0.625 0.902344 1.11719 0.375 1.71484 0.375H15.25ZM5.37109 13.875V6.38672H3.05078V13.875H5.37109ZM4.21094 5.33203C4.94922 5.33203 5.54688 4.73438 5.54688 3.99609C5.54688 3.25781 4.94922 2.625 4.21094 2.625C3.4375 2.625 2.83984 3.25781 2.83984 3.99609C2.83984 4.73438 3.4375 5.33203 4.21094 5.33203ZM14.125 13.875V9.76172C14.125 7.75781 13.668 6.17578 11.3125 6.17578C10.1875 6.17578 9.41406 6.80859 9.09766 7.40625H9.0625V6.38672H6.84766V13.875H9.16797V10.1836C9.16797 9.19922 9.34375 8.25 10.5742 8.25C11.7695 8.25 11.7695 9.375 11.7695 10.2188V13.875H14.125Z" fill="white"/>
</svg>
