<svg width="139" height="66" viewBox="0 0 139 66" fill="none" xmlns="http://www.w3.org/2000/svg">
<path d="M138.658 50.1013H131.103V45.3297H130.971C129.866 47.1853 128.32 48.5991 126.332 49.5711C124.388 50.5431 122.289 51.0291 120.036 51.0291C117.606 51.0291 115.419 50.5873 113.475 49.7037C111.576 48.7759 109.941 47.5609 108.571 46.0587C107.246 44.5124 106.208 42.7231 105.457 40.6907C104.75 38.6142 104.396 36.4052 104.396 34.0636C104.396 31.722 104.772 29.535 105.523 27.5027C106.274 25.4704 107.334 23.7031 108.704 22.201C110.073 20.6988 111.708 19.528 113.608 18.6886C115.508 17.805 117.584 17.3631 119.837 17.3631C121.295 17.3631 122.599 17.5399 123.747 17.8933C124.896 18.2026 125.89 18.6002 126.73 19.0862C127.613 19.5722 128.364 20.1024 128.983 20.6767C129.601 21.2511 130.109 21.8033 130.507 22.3335H130.706V0H138.658V50.1013ZM112.481 34.0636C112.481 35.3006 112.658 36.5377 113.011 37.7748C113.409 39.0119 113.983 40.1164 114.735 41.0884C115.486 42.0603 116.435 42.8556 117.584 43.4741C118.733 44.0927 120.08 44.4019 121.627 44.4019C123.085 44.4019 124.388 44.1148 125.537 43.5404C126.685 42.9219 127.657 42.1266 128.453 41.1546C129.292 40.1826 129.911 39.1002 130.308 37.9073C130.75 36.6703 130.971 35.4332 130.971 34.1961C130.971 32.959 130.75 31.722 130.308 30.4849C129.911 29.2478 129.292 28.1433 128.453 27.1713C127.657 26.1994 126.685 25.4041 125.537 24.7856C124.388 24.167 123.085 23.8578 121.627 23.8578C120.08 23.8578 118.733 24.167 117.584 24.7856C116.435 25.3599 115.486 26.1331 114.735 27.1051C113.983 28.077 113.409 29.1816 113.011 30.4186C112.658 31.6115 112.481 32.8265 112.481 34.0636Z" fill="#C58BD7"/>
<path d="M85.3385 18.2843H92.9597V23.586H93.0922C93.9758 21.7304 95.2129 20.2283 96.8034 19.0795C98.3939 17.9308 100.249 17.3565 102.37 17.3565C102.679 17.3565 103.011 17.3786 103.364 17.4228C103.718 17.4228 104.027 17.4669 104.292 17.5553V24.8452C103.762 24.7126 103.298 24.6243 102.9 24.5801C102.547 24.5359 102.193 24.5138 101.84 24.5138C100.029 24.5138 98.5706 24.8452 97.4661 25.5079C96.3616 26.1706 95.5001 26.9659 94.8815 27.8937C94.263 28.8215 93.8433 29.7714 93.6224 30.7434C93.4015 31.7153 93.291 32.4885 93.291 33.0629V50.0947H85.3385V18.2843Z" fill="#C58BD7"/>
<path d="M77.803 18.2843V47.245C77.803 50.1168 77.4496 52.7014 76.7427 54.9988C76.0358 57.3404 74.9313 59.3065 73.4291 60.897C71.9711 62.5317 70.1155 63.7909 67.8623 64.6745C65.6091 65.5581 62.9361 65.9999 59.8435 65.9999C58.5622 65.9999 57.1926 65.8895 55.7347 65.6686C54.3209 65.4477 52.9071 65.1163 51.4933 64.6745C50.1237 64.2327 48.7983 63.6804 47.517 63.0177C46.2358 62.355 45.0871 61.6039 44.0709 60.7645L48.6436 54.6012C50.1899 56.0592 51.9351 57.1637 53.8791 57.9148C55.823 58.71 57.7891 59.1077 59.7772 59.1077C61.677 59.1077 63.2675 58.8205 64.5487 58.2461C65.8742 57.716 66.9124 56.9649 67.6635 55.9929C68.4588 55.0209 69.011 53.8722 69.3203 52.5468C69.6737 51.2213 69.8505 49.7634 69.8505 48.1728V45.8533H69.7179C68.5692 47.3997 67.0891 48.5926 65.2777 49.432C63.5105 50.2273 61.5224 50.6249 59.3133 50.6249C56.9275 50.6249 54.7627 50.1831 52.8187 49.2994C50.8748 48.4158 49.218 47.2229 47.8484 45.7208C46.5229 44.2186 45.4847 42.4735 44.7336 40.4853C43.9825 38.453 43.607 36.3102 43.607 34.057C43.607 31.7595 43.9604 29.5947 44.6673 27.5623C45.4184 25.53 46.4567 23.7627 47.7821 22.2606C49.1517 20.7584 50.7864 19.5655 52.6862 18.6819C54.6301 17.7983 56.795 17.3565 59.1808 17.3565C61.434 17.3565 63.5326 17.8204 65.4765 18.7482C67.4205 19.676 68.9668 21.1119 70.1155 23.0559H70.2481V18.2843H77.803ZM60.8375 23.8511C59.3796 23.8511 58.0762 24.1162 56.9275 24.6464C55.823 25.1765 54.8731 25.9055 54.0779 26.8333C53.3268 27.717 52.7304 28.7773 52.2885 30.0144C51.8909 31.2515 51.6921 32.5769 51.6921 33.9907C51.6921 35.2719 51.8909 36.509 52.2885 37.7019C52.7304 38.8948 53.3268 39.9772 54.0779 40.9492C54.8731 41.877 55.823 42.6281 56.9275 43.2025C58.0762 43.7768 59.3575 44.064 60.7713 44.064C62.2292 44.064 63.5326 43.7989 64.6813 43.2687C65.8742 42.6944 66.8682 41.9433 67.6635 41.0155C68.5029 40.0877 69.1436 39.0273 69.5854 37.8344C70.0272 36.5974 70.2481 35.3161 70.2481 33.9907C70.2481 32.6211 70.0272 31.3177 69.5854 30.0807C69.1436 28.8436 68.5029 27.7611 67.6635 26.8333C66.8682 25.9055 65.8963 25.1765 64.7476 24.6464C63.5989 24.1162 62.2955 23.8511 60.8375 23.8511Z" fill="#C58BD7"/>
<path d="M24.5174 18.2843H32.1386V23.586H32.2711C33.1547 21.7304 34.3918 20.2283 35.9823 19.0795C37.5728 17.9308 39.4284 17.3565 41.5491 17.3565C41.8583 17.3565 42.1897 17.3786 42.5431 17.4228C42.8966 17.4228 43.2058 17.4669 43.4709 17.5553V24.8452C42.9408 24.7126 42.4769 24.6243 42.0792 24.5801C41.7258 24.5359 41.3723 24.5138 41.0189 24.5138C39.2075 24.5138 37.7495 24.8452 36.645 25.5079C35.5405 26.1706 34.6789 26.9659 34.0604 27.8937C33.4419 28.8215 33.0222 29.7714 32.8013 30.7434C32.5804 31.7153 32.4699 32.4885 32.4699 33.0629V50.0947H24.5174V18.2843Z" fill="#C58BD7"/>
<path d="M0 24.6659V18.3039H5.5668V9.09214H13.3868V18.3039H21.3394V24.6659H13.3868V39.4444C13.3868 40.8582 13.6298 42.029 14.1158 42.9568C14.646 43.8846 15.7947 44.3485 17.5619 44.3485C18.0921 44.3485 18.6664 44.3043 19.285 44.216C19.9035 44.0834 20.4558 43.9067 20.9418 43.6858L21.2068 49.9153C20.5 50.1804 19.6605 50.3792 18.6885 50.5118C17.7166 50.6885 16.7888 50.7769 15.9051 50.7769C13.7844 50.7769 12.0614 50.4897 10.736 49.9153C9.41054 49.2968 8.35019 48.4794 7.55494 47.4633C6.80386 46.4029 6.27369 45.21 5.96443 43.8846C5.69934 42.515 5.5668 41.057 5.5668 39.5107V24.6659H0Z" fill="#C58BD7"/>
</svg>
